<?xml version="1.0" encoding="utf-8"?>
<!-- Generator: Adobe Illustrator 23.0.1, SVG Export Plug-In . SVG Version: 6.00 Build 0)  -->
<svg version="1.1" xmlns="http://www.w3.org/2000/svg" xmlns:xlink="http://www.w3.org/1999/xlink" x="0px" y="0px"
	 viewBox="0 0 596.3 446.4" style="enable-background:new 0 0 596.3 446.4;" xml:space="preserve">
<style type="text/css">
	.st0{fill:#11824A;}
	.st1{enable-background:new    ;}
</style>
<g id="Layer_1">
</g>
<g id="Layer_2">
	<g id="Layer_x0020_1_1_">
		<g id="_270642904_1_">
			<g>
				<path id="_270643144_1_" d="M1.7,223.8H137c10,52,75.5,94,162,109.2c-20.9,3.3-43.7,5-67.2,5C113.4,337.9,15.1,288.5,1.7,223.8
					L1.7,223.8z M597.2,195.2H461.1C451,143.9,385.5,101.9,300,86.8c20-3.3,42.7-5.9,66.3-5.9C484.7,80.9,583.8,131.3,597.2,195.2z"
					/>
				<path id="_270642784_1_" class="st0" d="M596.3,223.8H461c-10.1,52-75.6,94-162.1,109.2c21,3.3,43.7,5,67.3,5
					C484.6,337.9,582.9,288.5,596.3,223.8L596.3,223.8z M0,195.2h137c9.9-51.3,75.4-93.3,162-108.4c-20.9-3.3-43.7-5.9-67.2-5.9
					C113.3,80.9,13.4,131.3,0,195.2z"/>
				<path id="_270642712_1_" d="M352.3,177.4L322.4,188c-5.8-11.6-16.5-20.6-29.5-24.4c8.1-7.3,18.5-12.4,30-14.4
					C335.5,155.4,345.9,165.4,352.3,177.4z M262.2,208.6c0,30.2,21,55.8,49.8,63.8c-6.3,1.9-13.2,2.9-20.1,2.9
					c-37.6,0-68.4-29.7-68.4-66.6c0-36.9,30.8-66.6,68.4-66.6c6.9,0,13.8,1,20.1,2.9C283.2,152.8,262.2,178.4,262.2,208.6
					L262.2,208.6z M352.3,239.7l-29.9-10.6c-5.8,11.6-16.5,20.6-29.5,24.4c8.1,7.3,18.5,12.4,30,14.4
					C335.5,261.8,345.9,251.8,352.3,239.7z"/>
			</g>
			<g class="st1">
				<path d="M70,385.4c0-2.4-0.8-4.1-2.3-5.2c-1.6-1-4-1.6-7.3-1.6H45.9c-2.9,0-5.4,0.1-7.3,0.4c-1.9,0.3-3.4,0.8-4.5,1.6
					c-1.1,0.8-1.9,2-2.3,3.6c-0.4,1.6-0.6,3.6-0.6,6.1v8.3c0,2.3,0.3,4.2,0.8,5.7c0.5,1.4,1.4,2.6,2.5,3.4c1.2,0.8,2.7,1.4,4.6,1.7
					c1.9,0.3,4.1,0.4,6.8,0.4h10.5c2.5,0,4.7-0.1,6.5-0.3c1.8-0.2,3.2-0.6,4.4-1.2c1.2-0.6,2-1.4,2.5-2.5c0.5-1.1,0.8-2.5,0.8-4.3
					V401H89c0.1,0.8,0.1,1.5,0.1,2.2c0,0.7,0,1.4,0,2.1c0,3.7-0.4,6.8-1.4,9.3c-0.9,2.5-2.4,4.5-4.6,6.1c-2.3,1.7-5.2,2.8-8.8,3.3
					c-3.6,0.5-8,0.7-13.2,0.7H40.8c-2.4,0-4.5,0-6.5-0.1c-2-0.1-3.9-0.3-5.6-0.6c-1.8-0.3-3.4-0.8-4.8-1.3c-1.5-0.6-2.9-1.4-4.2-2.4
					c-2.5-2-4.3-4.3-5.4-7.1c-1-2.8-1.5-6.2-1.5-10.3v-16.2c0-4.5,0.5-8.2,1.5-11.1c1-2.9,2.6-5.3,4.9-7c2.3-1.8,5.2-3,8.7-3.7
					c3.6-0.7,7.9-1.1,12.9-1.1h20.3c5.3,0,9.6,0.2,13.2,0.7c3.5,0.4,6.4,1.5,8.6,3.2c1.9,1.5,3.3,3.4,4.2,5.9
					c0.9,2.5,1.3,5.5,1.3,9.1c0,0.6,0,1.1,0,1.6c0,0.5,0,1.1-0.1,1.7H70V385.4z"/>
				<path d="M99.4,376.8v-12.4h15.1v12.4H99.4z M99.4,424v-42.1h15.1V424H99.4z"/>
				<path d="M126.8,424v-41.9h15.2v6.5c1-1.5,2.1-2.7,3.3-3.6c1.2-0.9,2.6-1.7,4.1-2.2c1.6-0.5,3.2-0.9,5.1-1.1
					c1.9-0.2,4-0.3,6.3-0.3c13.7,0,20.6,5.1,20.6,15.3V424h-15.2v-21.2c0-1.7-0.1-3.1-0.4-4.3c-0.3-1.2-0.9-2.1-1.8-2.8
					c-0.9-0.7-2.1-1.2-3.7-1.5c-1.6-0.3-3.7-0.4-6.2-0.4c-4.4,0-7.6,0.8-9.4,2.3c-1.9,1.5-2.8,4.1-2.8,7.7V424H126.8L126.8,424z"/>
				<path d="M188.6,392.9v-11h8.5v-10.1h15.1v10.1H236v11h-23.7v14.3c0,2.1,0.4,3.7,1.3,4.6c0.8,0.9,2.4,1.4,4.6,1.4
					c2.5,0,4.2-0.4,5.1-1.3c0.9-0.9,1.4-2.5,1.4-4.8c0-0.4,0-0.8,0-1.2c0-0.4-0.1-0.8-0.1-1.3H238c0.1,0.7,0.2,1.3,0.2,1.9
					c0,0.6,0,1.2,0,1.8c0,2.9-0.4,5.4-1.2,7.4c-0.8,2-2.1,3.7-3.8,5c-1.7,1.3-4,2.3-6.6,2.9c-2.7,0.6-5.9,0.9-9.6,0.9
					c-3.5,0-6.6-0.2-9.1-0.7c-2.5-0.5-4.5-1.3-6.1-2.5c-1.5-1.1-2.7-2.6-3.4-4.5c-0.7-1.8-1.1-4.2-1.1-6.9v-17.1H188.6z"/>
				<path d="M283.3,424v-5.1c-1.6,2-4,3.5-7.2,4.3c-3.3,0.9-7.4,1.3-12.4,1.3c-3.7,0-6.9-0.2-9.4-0.7c-2.6-0.4-4.7-1.2-6.3-2.3
					c-1.6-1.1-2.7-2.5-3.4-4.3c-0.7-1.8-1.1-4.1-1.1-6.8c0-2.8,0.4-5.1,1.1-6.9c0.8-1.8,2-3.2,3.7-4.2c1.7-1,3.9-1.7,6.6-2.1
					c2.7-0.4,6-0.6,9.8-0.6c4.4,0,8.2,0.3,11.2,0.8c3.1,0.5,5.5,1.5,7.4,2.8v-4.5c0-3.1-2-4.6-5.9-4.6H265c-3,0-4.4,1.1-4.4,3.2
					h-15.2v-0.5c0-4.6,1.7-7.9,5.2-9.8c3.5-1.9,8.9-2.8,16.2-2.8h14.8c5.7,0,10,1.1,12.8,3.4c2.7,2.2,4.1,5.8,4.1,10.6V424H283.3
					L283.3,424z M266.4,405.8c-2.6,0-4.5,0.3-5.7,0.9c-1.2,0.6-1.8,1.7-1.8,3.4c0,1.7,0.6,2.8,1.8,3.3c1.2,0.5,3.1,0.7,5.7,0.7h9.3
					c2.6,0,4.5-0.3,5.7-0.9c1.2-0.6,1.8-1.7,1.8-3.4c0-1.7-0.6-2.8-1.8-3.3c-1.2-0.5-3.1-0.7-5.7-0.7H266.4z"/>
				<path d="M308.6,424v-41.9h15.1v6.5c1-1.5,2.1-2.7,3.3-3.6c1.2-0.9,2.6-1.7,4.2-2.2c1.5-0.5,3.2-0.9,5.1-1.1
					c1.9-0.2,4-0.3,6.4-0.3c13.7,0,20.5,5.1,20.5,15.3V424H348v-21.2c0-1.7-0.2-3.1-0.5-4.3c-0.3-1.2-0.9-2.1-1.7-2.8
					c-0.9-0.7-2.1-1.2-3.7-1.5c-1.6-0.3-3.7-0.4-6.2-0.4c-4.4,0-7.5,0.8-9.4,2.3c-1.8,1.5-2.8,4.1-2.8,7.7V424H308.6L308.6,424z"/>
				<path d="M413.9,364.5h15.2V424h-15.2v-7.5c-0.2,1.6-0.7,2.9-1.5,4c-0.8,1.1-2,1.9-3.6,2.5c-1.6,0.6-3.5,1.1-5.7,1.3
					c-2.3,0.3-4.9,0.4-8,0.4c-3.9,0-7.3-0.2-10.1-0.7c-2.8-0.5-5.1-1.2-6.9-2.4c-1.8-1.1-3.1-2.6-3.9-4.4c-0.8-1.8-1.2-4-1.2-6.6
					v-13.9c0-2.7,0.4-5,1.2-6.8c0.8-1.9,2.1-3.4,3.8-4.6c1.7-1.2,4-2.1,6.8-2.6c2.8-0.5,6.2-0.8,10.1-0.8c2.9,0,5.3,0.1,7.5,0.3
					c2.2,0.2,4,0.6,5.6,1.2c1.5,0.6,2.8,1.4,3.8,2.4c1,1,1.7,2.3,2.1,3.8V364.5z M404.6,413.1c3.4,0,5.9-0.5,7.4-1.5
					c1.5-1,2.2-2.9,2.2-5.5V401c0-2.8-0.7-4.8-2.1-5.9c-1.4-1.1-3.9-1.6-7.5-1.6h-6.9c-3.4,0-5.8,0.5-7.3,1.6
					c-1.5,1.1-2.3,2.9-2.3,5.6v5.2c0,2.7,0.8,4.6,2.3,5.6c1.5,1,4,1.5,7.3,1.5H404.6L404.6,413.1z"/>
				<path d="M441.4,376.8v-12.4h15.2v12.4H441.4z M441.4,424v-42.1h15.2V424H441.4z"/>
				<path d="M468.7,424v-41.9h15.1v6.5c1-1.5,2.1-2.7,3.3-3.6c1.2-0.9,2.6-1.7,4.1-2.2c1.5-0.5,3.2-0.9,5.1-1.1
					c1.9-0.2,4-0.3,6.4-0.3c13.7,0,20.6,5.1,20.6,15.3V424h-15.2v-21.2c0-1.7-0.1-3.1-0.4-4.3c-0.3-1.2-0.9-2.1-1.8-2.8
					c-0.9-0.7-2.1-1.2-3.7-1.5c-1.6-0.3-3.7-0.4-6.2-0.4c-4.4,0-7.6,0.8-9.4,2.3c-1.9,1.5-2.8,4.1-2.8,7.7V424H468.7L468.7,424z"/>
				<path d="M571.4,424v-5.1c-1.6,2-4,3.5-7.2,4.3c-3.2,0.9-7.4,1.3-12.4,1.3c-3.7,0-6.9-0.2-9.5-0.7c-2.6-0.4-4.7-1.2-6.3-2.3
					c-1.6-1.1-2.7-2.5-3.4-4.3c-0.7-1.8-1.1-4.1-1.1-6.8c0-2.8,0.4-5.1,1.1-6.9c0.8-1.8,2-3.2,3.7-4.2c1.7-1,3.9-1.7,6.6-2.1
					c2.7-0.4,5.9-0.6,9.8-0.6c4.4,0,8.2,0.3,11.2,0.8c3.1,0.5,5.5,1.5,7.4,2.8v-4.5c0-3.1-2-4.6-5.9-4.6h-12.4
					c-2.9,0-4.4,1.1-4.4,3.2h-15.1v-0.5c0-4.6,1.7-7.9,5.2-9.8c3.5-1.9,8.9-2.8,16.2-2.8h14.8c5.7,0,10,1.1,12.7,3.4
					c2.7,2.2,4.1,5.8,4.1,10.6V424H571.4L571.4,424z M554.5,405.8c-2.6,0-4.5,0.3-5.7,0.9c-1.2,0.6-1.8,1.7-1.8,3.4
					c0,1.7,0.6,2.8,1.8,3.3c1.2,0.5,3.1,0.7,5.7,0.7h9.2c2.6,0,4.5-0.3,5.7-0.9c1.2-0.6,1.8-1.7,1.8-3.4c0-1.7-0.6-2.8-1.8-3.3
					c-1.2-0.5-3.1-0.7-5.7-0.7H554.5z"/>
			</g>
		</g>
	</g>
	<g>
		<path d="M13.6,80.9c0.2-2.8,0.3-6.8,0.3-10.4V21.6h7.3V47h0.2c2.6-4.5,7.3-7.4,13.8-7.4c10,0,17.1,8.3,17,20.6
			c0,14.4-9.1,21.6-18.1,21.6c-5.8,0-10.5-2.3-13.5-7.6h-0.2l-0.3,6.7H13.6z M21.2,64.7c0,0.9,0.2,1.8,0.3,2.7
			c1.4,5.1,5.7,8.6,11,8.6c7.7,0,12.3-6.3,12.3-15.5c0-8.1-4.2-15-12-15c-5,0-9.7,3.4-11.2,9c-0.2,0.8-0.4,1.8-0.4,3V64.7z"/>
		<path d="M63.5,40.5l8.9,23.9c0.9,2.7,1.9,5.8,2.6,8.3h0.2c0.7-2.4,1.6-5.5,2.6-8.4l8-23.7h7.8l-11,28.8
			c-5.3,13.9-8.8,21-13.9,25.3c-3.6,3.2-7.2,4.4-9,4.8l-1.8-6.2c1.8-0.6,4.3-1.8,6.4-3.6c2-1.6,4.5-4.4,6.2-8.2
			c0.3-0.8,0.6-1.3,0.6-1.8c0-0.4-0.2-1-0.5-1.9L55.5,40.5H63.5z"/>
	</g>
</g>
</svg>
