<?xml version="1.0" encoding="utf-8"?>
<!-- Generator: Adobe Illustrator 23.0.1, SVG Export Plug-In . SVG Version: 6.00 Build 0)  -->
<svg version="1.1" xmlns="http://www.w3.org/2000/svg" xmlns:xlink="http://www.w3.org/1999/xlink" x="0px" y="0px"
	 viewBox="0 0 1689 446.4" style="enable-background:new 0 0 1689 446.4;" xml:space="preserve">
<style type="text/css">
	.st0{fill-rule:evenodd;clip-rule:evenodd;fill:#006726;}
	.st1{clip-path:url(#SVGID_2_);}
	.st2{clip-path:url(#SVGID_4_);}
	.st3{fill:#FFFFFF;}
	.st4{fill-rule:evenodd;clip-rule:evenodd;fill:#6AB335;}
	.st5{clip-path:url(#SVGID_6_);}
	.st6{clip-path:url(#SVGID_8_);}
	.st7{fill-rule:evenodd;clip-rule:evenodd;fill:#FFFFFF;}
	.st8{fill:#11824A;}
	.st9{enable-background:new    ;}
</style>
<g id="Layer_1">
	<title>harza-tapes-logo</title>
	<polygon class="st0" points="889.6,63.9 889.6,382.4 58.1,382.4 2,63.9 889.6,63.9 	"/>
	<g>
		<defs>
			<polygon id="SVGID_1_" points="889.6,382.4 819.1,382.4 819.1,63.9 889.6,63.9 889.6,382.4 			"/>
		</defs>
		<clipPath id="SVGID_2_">
			<use xlink:href="#SVGID_1_"  style="overflow:visible;"/>
		</clipPath>
		<g class="st1">
			<g>
				<defs>
					<rect id="SVGID_3_" x="819.1" y="63.9" width="70.5" height="318.5"/>
				</defs>
				<clipPath id="SVGID_4_">
					<use xlink:href="#SVGID_3_"  style="overflow:visible;"/>
				</clipPath>
				<g class="st2">
					
						<image style="overflow:visible;enable-background:new    ;" width="77" height="327" xlink:href="1A9AB4AE42B1FE9B.png"  transform="matrix(0.9804 0 0 -0.9804 816.4304 383.8613)">
					</image>
				</g>
			</g>
		</g>
	</g>
	<path class="st3" d="M276.3,129.8v183.9h-56.4v-71.6h-43.1v71.6h-56.4V129.8h56.4v67.6h43.1v-67.6H276.3z M684.7,279.6v34.1H563.8
		v-29.8l57.8-74.3c-6.9,0.3-11.6,0.4-14,0.4h-39.1v-33.4h114v28.8l-59.1,74.4l7.2-0.1c1.4-0.1,2.7-0.1,3.9-0.1L684.7,279.6z
		 M841.5,313.7h-51.2c-1.3-6.3-1.9-12.7-1.9-19.1c-9.7,14.6-24.4,22-44.1,22c-16.1,0-28.2-4.1-36.3-12.4c-8-8.3-12.1-17.7-12.1-28.4
		c0-14.5,6.6-26.2,19.8-35.1c13.1-9,36.5-14.3,70-16.1v-3.1c0-6-1.4-10-4.1-12c-2.7-2-6.8-2.9-12-2.9c-12.4,0-19.3,5-20.7,14.9
		l-49-4.6c7-28.6,30.8-43,71.5-43c10.2-0.1,20.5,1,30.4,3.3c9.2,2.2,16.6,5.6,22,10.3c5.4,4.6,9,9.6,10.9,14.8
		c1.8,5.2,2.8,15.2,2.8,30V287C837.3,297.4,838.7,306.3,841.5,313.7L841.5,313.7z M785.7,249.6c-22.9,2.4-34.4,9.8-34.4,22
		c0,8.3,4.5,12.4,13.6,12.4c5.4,0.1,10.6-1.7,14.7-5.1c4-3.4,6.1-10.9,6.1-22.6V249.6L785.7,249.6z M519.7,313.7h-51.5v-137h44.7
		V205c5.2-20.6,17-30.9,35.7-30.9c2.6,0.1,5.2,0.2,7.8,0.6v47.8c-3.3-0.9-6.7-1.3-10.1-1.4c-17.8,0-26.7,9.9-26.7,29.8V313.7
		L519.7,313.7z M444.5,313.7h-51.2c-1.3-6.3-1.9-12.7-1.9-19.1c-9.7,14.6-24.4,22-44.1,22c-16.1,0-28.2-4.1-36.3-12.4
		c-8-8.3-12.1-17.7-12.1-28.4c0-14.5,6.6-26.2,19.8-35.1c13.1-9,36.5-14.3,70-16.1v-3.1c0-6-1.4-10-4.1-12c-2.7-2-6.8-2.9-12.1-2.9
		c-12.4,0-19.3,5-20.7,14.9l-49-4.6c7-28.6,30.8-43,71.5-43c10.2-0.1,20.5,1,30.4,3.3c9.2,2.2,16.6,5.6,22,10.3
		c5.4,4.6,9,9.6,10.9,14.8c1.8,5.2,2.8,15.2,2.8,30V287C440.3,297.4,441.7,306.3,444.5,313.7L444.5,313.7z M388.7,249.6
		c-22.9,2.4-34.4,9.8-34.4,22c0,8.3,4.5,12.4,13.6,12.4c5.4,0.1,10.6-1.7,14.7-5.1c4-3.4,6.1-10.9,6.1-22.6V249.6L388.7,249.6z"/>
	<path class="st4" d="M1221.6,412.7l0.6,0c11.4-0.4,22.7-0.8,33.9-1.3l-3.8-376.5c-10.1-0.4-20.4-0.8-30.7-1.2V412.7z M1282.4,410.1
		c26.2-1.2,49.8-2.5,73.6-4.9v-364c-23.8-2.4-47.4-3.7-73.6-4.9V410.1L1282.4,410.1z"/>
	<path class="st0" d="M1256.1,411.3c8.9-0.4,17.6-0.8,26.3-1.2V36.2c-9.9-0.5-19.9-0.9-30.1-1.4L1256.1,411.3L1256.1,411.3z
		 M1356,405.2c10-1,20-2.2,30.3-3.8c20.3-3,38.1-8.6,52.2-15c2.8-1.3,4.7-2.5,4.7-4V63.9c0-1.5,0.1-2.7-2.7-4
		c-14.2-6.4-33.9-12-54.2-15c-10.3-1.5-20.3-2.8-30.3-3.8V405.2z M1166.4,413.6c18.7,0,37.4-0.4,55.8-1l-0.6,0v-379
		c-18.2-0.6-36.7-1-55.2-1c-39.5,0-78.8,1.7-115.9,3.5c-37.2,1.8-69.2,3.5-104,8.7c-20.3,3-40.1,8.6-54.2,15c-2.8,1.3-2.7,2.5-2.7,4
		v318.5c0,1.5-0.1,2.7,2.7,4c14.2,6.4,33.9,12,54.2,15c34.7,5.2,66.8,6.9,104,8.7C1087.7,411.9,1126.9,413.6,1166.4,413.6
		L1166.4,413.6z"/>
	<g>
		<defs>
			<path id="SVGID_5_" d="M1153,221.3c1.5,0,3,0.8,3.9,2.1c1.2,1.6,2,3.3,2.6,5.2c0.5,2.1,0.8,4.2,0.9,6.4c0.1,4.6-0.7,9.1-2.4,13.4
				c-1.5,4-3.8,7.7-6.8,10.8c-2.8,2.8-6.3,4.8-10.1,5.9c-3.7,1-7.5,1.5-11.3,1.3c1.3-8.2,3.3-16.2,6-24c2.3-6.7,4.8-11.8,7.7-15.4
				C1146.4,223.3,1149.7,221.4,1153,221.3L1153,221.3z M1146.2,315.7c-2.3,0.3-4.7-0.1-6.8-1c-2.2-1-4.3-2.3-6-4.1
				c-1.9-1.9-3.5-4.1-4.8-6.4c-0.8-1.5-1.3-3.1-1.6-4.8c-0.3-2-0.5-4.1-0.5-6.2c0-2.1,0.1-4.3,0.3-6.5c0.2-2.2,0.5-4.4,0.8-6.5
				c4.6,0.4,9.3,0.3,13.8-0.5c9.8-1.6,19.1-5.7,26.8-12c5.7-4.7,10.2-10.7,13.2-17.5c3.2-7.3,4.8-15.2,4.6-23.2
				c0-8-1.9-13.7-5.8-17.2c-3.8-3.4-9.9-4.9-17.8-4.5c-5.7,0.3-11.3,1.6-16.5,3.9c-5.5,2.5-10.5,5.9-14.9,10
				c-4.9,4.6-9.2,9.8-12.7,15.6c-4,5.7-7.3,11.9-9.8,18.4c-2.6,6.7-4.4,13.7-5.5,20.8c-1.2,7.4-1.6,14.8-1.2,22.3
				c0.5,11.3,3.6,19.9,9,26.1c5.7,6.2,13.7,9.8,24.2,10.8c5,0.5,10,0.3,15-0.5c5-0.9,9.8-2.5,14.4-4.7c3-1.3,5.8-3,8.4-5.1
				c2.3-1.9,4.4-4.2,6.1-6.7c1-1.5,1.7-3.1,2.2-4.8c0.5-1.8,0.8-3.6,0.7-5.5c0-1.4-0.2-2.9-0.6-4.3c-0.2-1.5-0.7-2.9-1.4-4.2
				c-3.1,3.5-6.6,6.7-10.3,9.6c-3.3,2.6-7,4.7-11,6.2C1154.6,314.6,1150.4,315.5,1146.2,315.7L1146.2,315.7z M1077.2,250.9
				c-0.2,5.8-0.8,11.5-1.7,17.2c-0.9,5.6-2.2,11-3.8,16.4c-1.4,4.7-3.2,9.2-5.4,13.6c-1.6,3.4-3.8,6.5-6.5,9.2
				c-2.3,2.2-4.8,3.2-7.3,3.1c-1.8-0.2-3.6-0.7-5.2-1.6c-1.7-1-3.2-2.3-4.4-3.8c-1.2-1.5-2-3.3-2.4-5.2c0.9-3.7,2.2-7.8,3.7-12.3
				c1.4-4.5,3.2-9.1,5.1-13.9c2-4.8,4-9.4,6.1-13.9c2.1-4.5,4.2-8.5,6.3-12.1c1.7-3.1,3.6-6,5.8-8.7c1.8-2.2,3.4-3.3,4.9-3.4
				c1.7,0,3,1.1,3.7,3.3c0.9,3.1,1.4,6.4,1.3,9.6C1077.2,249.2,1077.2,250.1,1077.2,250.9L1077.2,250.9z M1087.3,212.8
				c-0.7-0.1-1.4-0.2-2.1-0.2c-0.6-0.1-1.3-0.1-1.9-0.1c-3.1,0.2-6.1,1.1-8.7,2.8c-3,1.8-5.6,4.1-7.9,6.7c-2.6,2.9-4.9,6-6.9,9.3
				c-2.2,3.5-4.3,7.1-6.2,11c-2,3.9-3.8,7.7-5.4,11.6c0.9-5.5,1.8-10.5,2.6-14.9c0.7-4.4,1.2-8.1,1.6-11.1c0.3-2.1,0.5-4.3,0.6-6.4
				c0-3.2-0.7-5.6-2.2-7.1c-1.5-1.5-3.6-2.2-6.4-2c-2.3,0.1-4.7,0.7-6.8,1.6c-2.8,1.1-5.4,2.6-7.9,4.3c0.5,1.5,0.9,3.1,1.1,4.6
				c0.2,1.6,0.4,3.2,0.4,4.8c0,4.3-0.2,8.7-0.7,13.3c-0.5,4.6-1.2,9.7-2,15.3c-0.2,1.4-0.6,3.5-1.1,6.5c-0.4,3-1,6.5-1.7,10.5
				c-0.6,4.1-1.3,8.5-2,13.2c-0.7,4.7-1.5,9.5-2.2,14.3c-0.7,4.9-1.4,9.5-2.2,14c-1.3,8.9-3.7,17.3-4.4,26.3c-0.1,1.5-0.2,3-0.2,4.5
				c0,3.5,0.7,6.3,2,8.3c1.4,2.1,3.7,3.4,6.2,3.6c2,0.2,4,0.1,6-0.3c2.6-0.6,5-1.6,7.3-2.9c-0.4-1.7-0.7-3.5-1.1-5.2
				c-0.2-1.7-0.4-3.4-0.4-5c0-4.6,0.4-9.1,1.1-13.7c0.5-3.2,1-6.2,1.5-9.1c2,1.5,4.3,2.6,6.7,3.5c2.3,0.8,4.7,1.4,7.1,1.6
				c4.3,0.4,8.6-0.4,12.5-2.3c4.4-2.2,8.4-5.1,11.7-8.7c4-4.2,7.4-8.9,10.3-14c3.2-5.7,6-11.7,8.2-17.8c2.4-6.6,4.1-13.5,5.3-20.4
				c1.3-7,1.8-14.2,1.8-21.3c0-3.3-0.3-6.6-0.8-9.9c-0.5-3.1-1.3-6.1-2.4-9.1c-1-2.5-2.5-4.8-4.3-6.8
				C1091.7,214.3,1089.6,213.2,1087.3,212.8L1087.3,212.8z M973.8,283.9c-1.8,4.3-3.9,8.4-6.2,12.3c-1.8,2.9-3.4,4.3-4.6,4.2
				c-1.3-0.1-2.2-0.9-2.8-2.6c-0.7-2.4-1.1-4.8-1.2-7.3c0-4.2,0.2-8.5,0.6-12.7c0.4-4.4,1.1-8.8,1.9-13.3c0.8-4.3,1.8-8.5,3.1-12.7
				c1.1-3.7,2.4-7.3,3.9-10.8c1.1-2.7,2.6-5.3,4.5-7.6c1.5-1.9,3.2-2.9,4.8-2.9c1.4,0,2.8,0.4,4,1c1.5,0.9,2.8,2.1,3.7,3.5
				c1.2,1.9,2,4.1,2.4,6.4c-0.9,4-2,8.4-3.5,13.2c-1.5,4.9-3.1,9.8-5,14.8C977.7,274.4,975.8,279.3,973.8,283.9L973.8,283.9z
				 M1007.1,296.1c-1.1,1.6-2.3,3.1-3.7,4.5c-0.8,0.9-1.8,1.5-2.8,2c-0.3-0.9-0.7-2-1-3.3c-0.3-1.6-0.5-3.3-0.6-5
				c0-2.2,0.1-4.9,0.4-8.2c0.3-3.3,0.7-7,1.2-11c0.5-4.1,1.1-8.2,1.8-12.6c0.6-4.4,1.3-8.8,2.1-13.1c0.8-4.3,1.6-8.4,2.4-12.3
				c0.9-3.9,1.7-7.2,2.4-10.2c0.6-2.3,1.3-4.6,2.2-6.8c-1.8-1.3-3.8-2.4-5.9-3.3c-1.9-0.7-4-1-6-1c-1.6,0.1-3.2,0.6-4.5,1.5
				c-1.5,1-2.7,2.3-3.6,3.9c-1.5-1.8-3.5-3.1-5.7-3.9c-2.2-0.8-4.5-1.1-6.8-1c-3.5,0.3-6.8,1.5-9.6,3.6c-3.4,2.5-6.4,5.6-8.8,9.1
				c-2.9,4.1-5.4,8.5-7.5,13c-2.3,5.1-4.2,10.4-5.8,15.7c-1.7,5.6-2.9,11.4-3.8,17.2c-0.9,5.8-1.4,11.7-1.4,17.6
				c0,4.4,0.4,8.9,1.2,13.2c0.6,3.4,2,6.6,4,9.3c1.8,2.3,4.5,3.7,7.4,4c0.4,0,0.9,0.1,1.3,0.1c3.9,0.1,8-2.6,12.4-8.1
				c4.3-5.6,8.7-14,13.3-25.3c-0.1,1.3-0.2,2.9-0.3,4.7c-0.1,1.8-0.1,3.6-0.1,5.5c-0.1,1.8-0.1,3.6-0.1,5.1
				c0.1,6.8,1.2,11.9,3.2,15.4c2,3.5,4.8,5.4,8.4,5.7c2.1,0.1,4.1-0.6,5.8-1.8c2.4-1.5,4.5-3.4,6.3-5.5c2.1-2.5,4-5.2,5.6-8.1
				c1.7-3,3-6.1,4-9.4c1-3,1.5-6.1,1.5-9.2c0-0.5,0-0.9-0.1-1.4c0-0.3-0.3-0.4-0.5-0.5c-0.7,0-1.7,0.7-3,2.3
				C1010.3,291.1,1008.6,293.5,1007.1,296.1L1007.1,296.1z M923.1,196.2c0,0.8-0.1,1.5-0.2,2.3c-0.1,0.8-0.2,1.6-0.3,2.5
				c-0.1,1.2-0.3,3.3-0.8,6.3c-0.4,3-0.8,6.6-1.5,10.9c-0.5,4.3-1.2,8.8-1.8,13.8c-0.6,5-1.3,10-2,15.2c-0.7,5.1-1.4,10.1-2,14.9
				c-0.6,4.8-1.3,9.2-1.8,13.2c-0.6,4-1,7.2-1.3,9.8c-0.4,2.7-0.6,4.3-0.7,5.1c-0.6,3.9-1,7.3-1.2,10.3c-0.2,2.9-0.3,5.3-0.2,7.2
				c0.1,2.8,0.8,5,2,6.5c1.4,1.6,3.4,2.5,5.5,2.5c1.3,0.1,2.5,0,3.8-0.1c1.6-0.2,3.1-0.6,4.6-1.1c1.6-0.6,3.1-1.5,4.4-2.6
				c-0.3-1.2-0.7-2.4-0.9-3.4c-0.3-1-0.5-2-0.6-3.1c-0.2-1.2-0.3-2.4-0.3-3.5c0-3.6,0.1-7.2,0.5-10.8c0.3-3.9,0.7-8,1.2-12.1
				c0.7-5.5,1.4-11.3,2.2-17.3c0.8-6.1,1.6-12.1,2.4-18.2c0.9-6.1,1.7-12,2.4-17.7c0.8-5.7,1.6-11,2.2-15.9
				c0.7-4.9,1.3-9.1,1.8-12.7c0.1-1,0.5-2,1.2-2.8c0.8-0.5,1.7-0.8,2.6-0.8c0.8-0.1,1.8-0.1,2.8-0.1c1.2,0,2.4,0,3.7,0
				c1.3,0,2.5,0,3.6,0c1.1,0,2.1,0,3,0c2.5-0.1,4.9-1,6.8-2.6c2.1-1.9,3.7-4.3,4.6-7c1.1-3.1,1.6-7,1.6-11.8c0-0.6,0-1.1-0.1-1.5
				c-0.1-0.4-0.2-0.8-0.3-1.2c-1.8,0.6-3.8,1.3-5.8,2.2c-2.2,0.9-4.5,1.6-6.8,2.3c-2.9,0.8-5.8,1.3-8.8,1.5
				c-6.2,0.5-12.4,1-18.6,1.4c-6.1,0.4-12.2,0.9-18.2,1.3c-3.9,0.3-6.7,1.9-8.5,4.9c-1.8,3-2.7,7.5-2.5,13.5c0,1,0.1,2,0.1,3.1
				c0.1,1.1,0.2,2.2,0.3,3.4c0.5-0.1,0.9-0.2,1.3-0.5c0.6-0.3,1.1-0.7,1.5-1.2c1.7-1.5,3.7-2.8,5.8-3.8c2.6-1.2,5.4-1.9,8.3-2.1
				c0.8-0.1,1.6-0.1,2.4-0.1C921.5,196.3,922.3,196.3,923.1,196.2L923.1,196.2z"/>
		</defs>
		<clipPath id="SVGID_6_">
			<use xlink:href="#SVGID_5_"  style="overflow:visible;"/>
		</clipPath>
		<g class="st5">
			<g>
				<defs>
					<rect id="SVGID_7_" x="900.9" y="170.5" width="285.1" height="187.2"/>
				</defs>
				<clipPath id="SVGID_8_">
					<use xlink:href="#SVGID_7_"  style="overflow:visible;"/>
				</clipPath>
				<g class="st6">
					
						<image style="overflow:visible;enable-background:new    ;" width="293" height="195" xlink:href="1A9AB4AE42B1FE99.png"  transform="matrix(0.9831 0 0 -0.9831 899.8687 360.5462)">
					</image>
				</g>
			</g>
		</g>
	</g>
	<path class="st3" d="M1306.1,165.5c0-5.1,0-10.3,0-15.4c0-5.2,0-10.3,0-15.5c4.6,0.2,9.1,0.4,13.7,0.6c2.1,0,4.3,0.4,6.3,1.1
		c1.4,0.6,2.6,1.6,3.4,3c0.8,1.4,1.3,2.9,1.2,4.5c0,2-0.7,3.9-2.1,5.3c-1.4,1.4-3.6,2.3-6.6,2.6c0.9,0.4,1.7,0.9,2.5,1.5
		c1.3,1.2,2.4,2.5,3.4,4c1.8,2.7,3.5,5.4,5.3,8.1c-1.7,0-3.4,0-5.1,0c-1.3-2.1-2.7-4.2-4-6.2c-1.2-1.8-2.2-3.2-2.9-4.2
		c-0.6-0.8-1.3-1.5-2.1-2.1c-0.6-0.4-1.2-0.7-1.8-0.8c-0.7-0.1-1.5-0.2-2.3-0.2c-1.6,0-3.2-0.1-4.7-0.1c0,4.6,0,9.1-0.1,13.6
		C1308.8,165.5,1307.4,165.5,1306.1,165.5L1306.1,165.5z M1317.8,118.5c4.3,0.3,8.6,1.5,12.5,3.3c3.8,1.8,7.3,4.2,10.2,7.2
		c2.9,2.9,5.2,6.2,6.8,10c1.6,3.7,2.5,7.7,2.4,11.8c0,4-0.9,8-2.6,11.7c-1.7,3.6-4,6.9-6.9,9.7c-3,2.9-6.4,5.2-10.2,6.8
		c-3.9,1.7-8.2,2.7-12.5,2.8c-4.3,0.1-8.5-0.6-12.5-2.2c-3.8-1.5-7.3-3.8-10.2-6.8c-2.9-3-5.3-6.5-6.9-10.4
		c-1.7-4.1-2.5-8.5-2.5-12.9c0-4.4,0.8-8.8,2.5-12.8c1.6-3.8,3.9-7.3,6.9-10.1c2.9-2.8,6.4-5,10.2-6.3
		C1309.2,118.7,1313.5,118.1,1317.8,118.5L1317.8,118.5z M1337.8,131.4c-2.6-2.6-5.6-4.8-9-6.3c-3.5-1.6-7.2-2.6-11-2.9
		c-3.8-0.3-7.5,0.3-11.1,1.5c-3.4,1.2-6.5,3.1-9,5.6c-2.6,2.5-4.7,5.6-6.1,8.9c-1.5,3.6-2.2,7.4-2.2,11.2c0,3.9,0.7,7.7,2.2,11.3
		c1.4,3.4,3.5,6.5,6.1,9.2c2.5,2.6,5.6,4.6,9,6c3.5,1.4,7.2,2.1,11,2c7.5-0.2,14.6-3.2,20-8.4c2.6-2.4,4.6-5.3,6.1-8.5
		c3-6.6,3.1-14.2,0.1-20.8C1342.4,136.9,1340.3,133.9,1337.8,131.4L1337.8,131.4z M1310.2,148.3c2.9,0.1,5.9,0.1,8.8,0.2
		c1.5,0.1,3-0.1,4.4-0.5c1-0.3,1.8-0.9,2.4-1.7c0.5-0.8,0.8-1.7,0.8-2.7c0-1.4-0.5-2.7-1.6-3.6c-1-1-2.7-1.5-5-1.6
		c-3.3-0.1-6.5-0.3-9.8-0.4C1310.2,141.5,1310.2,144.9,1310.2,148.3L1310.2,148.3z"/>
	<path class="st7" d="M1224,278.7c2.2,2.5,4.1,5,6.1,7.5c1.7,2.4,3.2,5,4.4,7.7c1.1,2.6,1.7,5.5,1.7,8.3c0,5.6-1.2,10.4-4,13.8
		c-6.6,7.9-18.7,5.7-25.8-0.2c-3.7-3.1-6.8-6.9-9.1-11.1c-2.6-4.6-4.7-9.4-6.3-14.3c-1.5,0.8-2.8,1.9-4,3.1c-1.4,1.5-2.5,3.2-3.2,5
		c-0.9,2.2-1.4,4.7-1.3,7.1c0,4.4,1,8.8,3,12.7c1.8,3.8,4.4,7.1,7.6,9.8c3.1,2.8,6.7,5.1,10.6,6.7c3.8,1.6,7.8,2.6,11.9,3
		c2.1,0.2,4.1,0.2,6.2,0.2v-0.1c4.7-0.2,9.4-1.1,14-2.4c6.5-2.1,12.5-5.6,17.6-10.2c5.4-4.6,9.7-10.2,12.6-16.6
		c3.1-6.7,4.7-14,4.6-21.4c0-5.8-1.2-11.6-3.4-17c-2.1-5.1-4.9-9.9-8.2-14.3c-3.3-4.4-6.8-8.8-10.4-13.2c-1.8-2.3-3.3-4.7-4.6-7.3
		c-1.1-2.3-1.7-4.8-1.8-7.4c0-5,1.1-8.8,3.3-11.6c2.3-2.8,5.8-4.3,10.8-4.4c2.5,0,4.9,0.5,7.1,1.6c2.8,1.4,5.3,3.2,7.4,5.5
		c3.1-2.1,5.8-4.8,8-7.9c1.4-2.3,2.1-5,2.1-7.7c-0.5-2.6-2.2-4.8-4.6-6c-2.3-1-5.7-1.4-10.1-1.2c-5.8,0.3-11.6,1.1-17.3,2.5
		c-5.5,1.4-10.9,3.4-15.9,6c-4,2.2-7.7,4.8-11.1,7.8v-0.1c1.4-1.3-1.6,1.5-1.8,1.7c-3.7,3.7-6.7,8.1-8.8,13
		c-2.2,5.4-3.2,11.2-3.1,17c0,4.8,0.9,9.6,2.5,14.1c1.5,4.6,3.8,8.9,6.8,12.8C1219.5,273.5,1221.7,276.1,1224,278.7L1224,278.7z"/>
</g>
<g id="Layer_2">
	<g id="Layer_x0020_1_1_">
		<g id="_270642904_1_">
			<g>
				<path id="_270643144_1_" d="M1457.6,304.9h49.7c3.7,19.1,27.7,34.5,59.5,40.1c-7.7,1.2-16,1.8-24.7,1.8
					C1498.6,346.9,1462.5,328.7,1457.6,304.9L1457.6,304.9z M1676.5,294.4h-50c-3.7-18.9-27.8-34.3-59.2-39.8
					c7.4-1.2,15.7-2.2,24.4-2.2C1635.2,252.4,1671.6,270.9,1676.5,294.4z"/>
				<path id="_270642784_1_" class="st8" d="M1676.2,304.9h-49.7c-3.7,19.1-27.8,34.5-59.6,40.1c7.7,1.2,16.1,1.8,24.7,1.8
					C1635.1,346.9,1671.3,328.7,1676.2,304.9L1676.2,304.9z M1457,294.4h50.4c3.7-18.9,27.7-34.3,59.5-39.8
					c-7.7-1.2-16.1-2.2-24.7-2.2C1498.6,252.4,1461.9,270.9,1457,294.4z"/>
				<path id="_270642712_1_" d="M1586.5,287.9l-11,3.9c-2.1-4.3-6.1-7.6-10.9-9c3-2.7,6.8-4.6,11-5.3
					C1580.3,279.8,1584.1,283.4,1586.5,287.9z M1553.3,299.3c0,11.1,7.7,20.5,18.3,23.4c-2.3,0.7-4.9,1-7.4,1
					c-13.8,0-25.1-10.9-25.1-24.5c0-13.6,11.3-24.5,25.1-24.5c2.6,0,5.1,0.4,7.4,1C1561.1,278.8,1553.3,288.2,1553.3,299.3
					L1553.3,299.3z M1586.5,310.8l-11-3.9c-2.1,4.3-6.1,7.6-10.9,9c3,2.7,6.8,4.6,11,5.3C1580.3,318.9,1584.1,315.2,1586.5,310.8z"
					/>
			</g>
			<g class="st9">
				<path d="M1482.7,364.3c0-0.9-0.3-1.5-0.9-1.9c-0.6-0.4-1.5-0.6-2.7-0.6h-5.4c-1.1,0-2,0.1-2.7,0.1c-0.7,0.1-1.2,0.3-1.6,0.6
					c-0.4,0.3-0.7,0.7-0.8,1.3c-0.2,0.6-0.2,1.3-0.2,2.2v3c0,0.9,0.1,1.6,0.3,2.1c0.2,0.5,0.5,1,0.9,1.3c0.4,0.3,1,0.5,1.7,0.6
					c0.7,0.1,1.5,0.2,2.5,0.2h3.9c0.9,0,1.7,0,2.4-0.1c0.6-0.1,1.2-0.2,1.6-0.4c0.4-0.2,0.7-0.5,0.9-0.9c0.2-0.4,0.3-0.9,0.3-1.6
					v-0.2h6.8c0,0.3,0,0.6,0.1,0.8c0,0.3,0,0.5,0,0.8c0,1.4-0.2,2.5-0.5,3.4c-0.3,0.9-0.9,1.7-1.7,2.2c-0.8,0.6-1.9,1-3.2,1.2
					c-1.3,0.2-2.9,0.3-4.9,0.3h-7.5c-0.9,0-1.7,0-2.4,0c-0.7,0-1.4-0.1-2.1-0.2c-0.6-0.1-1.2-0.3-1.8-0.5c-0.5-0.2-1.1-0.5-1.5-0.9
					c-0.9-0.7-1.6-1.6-2-2.6c-0.4-1-0.6-2.3-0.6-3.8v-6c0-1.6,0.2-3,0.6-4.1c0.4-1.1,1-1.9,1.8-2.6c0.8-0.6,1.9-1.1,3.2-1.4
					c1.3-0.3,2.9-0.4,4.8-0.4h7.5c1.9,0,3.5,0.1,4.9,0.2c1.3,0.2,2.4,0.6,3.2,1.2c0.7,0.5,1.2,1.3,1.5,2.2c0.3,0.9,0.5,2,0.5,3.3
					c0,0.2,0,0.4,0,0.6c0,0.2,0,0.4,0,0.6h-6.7V364.3z"/>
				<path d="M1493.5,361.2v-4.5h5.6v4.5H1493.5z M1493.5,378.5v-15.5h5.6v15.5H1493.5z"/>
				<path d="M1503.6,378.5v-15.4h5.6v2.4c0.4-0.5,0.8-1,1.2-1.3c0.5-0.3,1-0.6,1.5-0.8c0.6-0.2,1.2-0.3,1.9-0.4
					c0.7-0.1,1.5-0.1,2.3-0.1c5,0,7.6,1.9,7.6,5.6v10h-5.6v-7.8c0-0.6,0-1.2-0.2-1.6c-0.1-0.4-0.3-0.8-0.6-1
					c-0.3-0.3-0.8-0.4-1.4-0.6c-0.6-0.1-1.4-0.2-2.3-0.2c-1.6,0-2.8,0.3-3.5,0.8c-0.7,0.6-1,1.5-1,2.8v7.5H1503.6L1503.6,378.5z"/>
				<path d="M1526.3,367.1v-4h3.1v-3.7h5.6v3.7h8.7v4h-8.7v5.3c0,0.8,0.2,1.3,0.5,1.7c0.3,0.3,0.9,0.5,1.7,0.5
					c0.9,0,1.5-0.2,1.9-0.5c0.3-0.3,0.5-0.9,0.5-1.7c0-0.1,0-0.3,0-0.4c0-0.2,0-0.3-0.1-0.5h4.9c0,0.2,0.1,0.5,0.1,0.7
					c0,0.2,0,0.4,0,0.7c0,1.1-0.2,2-0.5,2.7c-0.3,0.8-0.8,1.4-1.4,1.9c-0.6,0.5-1.5,0.8-2.4,1.1c-1,0.2-2.2,0.3-3.5,0.3
					c-1.3,0-2.4-0.1-3.3-0.3c-0.9-0.2-1.7-0.5-2.2-0.9c-0.6-0.4-1-1-1.2-1.7c-0.3-0.7-0.4-1.5-0.4-2.5v-6.3H1526.3z"/>
				<path d="M1561.1,378.5v-1.9c-0.6,0.7-1.5,1.3-2.7,1.6c-1.2,0.3-2.7,0.5-4.6,0.5c-1.4,0-2.5-0.1-3.5-0.2c-1-0.2-1.7-0.4-2.3-0.8
					c-0.6-0.4-1-0.9-1.3-1.6c-0.3-0.7-0.4-1.5-0.4-2.5c0-1,0.1-1.9,0.4-2.5c0.3-0.7,0.7-1.2,1.4-1.6c0.6-0.4,1.4-0.6,2.4-0.8
					c1-0.1,2.2-0.2,3.6-0.2c1.6,0,3,0.1,4.1,0.3c1.1,0.2,2,0.5,2.7,1v-1.7c0-1.1-0.7-1.7-2.2-1.7h-4.6c-1.1,0-1.6,0.4-1.6,1.2h-5.6
					v-0.2c0-1.7,0.6-2.9,1.9-3.6c1.3-0.7,3.3-1,5.9-1h5.5c2.1,0,3.7,0.4,4.7,1.2c1,0.8,1.5,2.1,1.5,3.9v10.6H1561.1L1561.1,378.5z
					 M1554.9,371.8c-1,0-1.7,0.1-2.1,0.3c-0.4,0.2-0.7,0.6-0.7,1.3c0,0.6,0.2,1,0.7,1.2c0.4,0.2,1.1,0.3,2.1,0.3h3.4
					c1,0,1.7-0.1,2.1-0.3c0.4-0.2,0.7-0.6,0.7-1.3c0-0.6-0.2-1-0.7-1.2c-0.4-0.2-1.1-0.3-2.1-0.3H1554.9z"/>
				<path d="M1570.4,378.5v-15.4h5.6v2.4c0.4-0.5,0.8-1,1.2-1.3c0.5-0.3,1-0.6,1.5-0.8c0.6-0.2,1.2-0.3,1.9-0.4
					c0.7-0.1,1.5-0.1,2.3-0.1c5,0,7.6,1.9,7.6,5.6v10h-5.6v-7.8c0-0.6-0.1-1.2-0.2-1.6c-0.1-0.4-0.3-0.8-0.6-1
					c-0.3-0.3-0.8-0.4-1.4-0.6c-0.6-0.1-1.3-0.2-2.3-0.2c-1.6,0-2.8,0.3-3.5,0.8c-0.7,0.6-1,1.5-1,2.8v7.5H1570.4L1570.4,378.5z"/>
				<path d="M1609.2,356.6h5.6v21.9h-5.6v-2.8c-0.1,0.6-0.2,1.1-0.5,1.5c-0.3,0.4-0.7,0.7-1.3,0.9c-0.6,0.2-1.3,0.4-2.1,0.5
					c-0.8,0.1-1.8,0.1-2.9,0.1c-1.4,0-2.7-0.1-3.7-0.3c-1-0.2-1.9-0.5-2.5-0.9c-0.7-0.4-1.1-0.9-1.4-1.6c-0.3-0.7-0.5-1.5-0.5-2.4
					v-5.1c0-1,0.1-1.8,0.4-2.5c0.3-0.7,0.8-1.3,1.4-1.7c0.6-0.4,1.5-0.8,2.5-0.9c1-0.2,2.3-0.3,3.7-0.3c1.1,0,2,0,2.8,0.1
					c0.8,0.1,1.5,0.2,2,0.5c0.6,0.2,1,0.5,1.4,0.9c0.4,0.4,0.6,0.8,0.8,1.4V356.6z M1605.7,374.5c1.3,0,2.2-0.2,2.7-0.6
					c0.5-0.4,0.8-1.1,0.8-2v-1.9c0-1-0.3-1.8-0.8-2.2c-0.5-0.4-1.4-0.6-2.8-0.6h-2.5c-1.2,0-2.1,0.2-2.7,0.6c-0.6,0.4-0.8,1.1-0.8,2
					v1.9c0,1,0.3,1.7,0.8,2.1c0.6,0.4,1.5,0.6,2.7,0.6H1605.7L1605.7,374.5z"/>
				<path d="M1619.2,361.2v-4.5h5.6v4.5H1619.2z M1619.2,378.5v-15.5h5.6v15.5H1619.2z"/>
				<path d="M1629.3,378.5v-15.4h5.6v2.4c0.4-0.5,0.8-1,1.2-1.3c0.5-0.3,1-0.6,1.5-0.8c0.6-0.2,1.2-0.3,1.9-0.4
					c0.7-0.1,1.5-0.1,2.3-0.1c5,0,7.6,1.9,7.6,5.6v10h-5.6v-7.8c0-0.6-0.1-1.2-0.2-1.6c-0.1-0.4-0.3-0.8-0.6-1
					c-0.3-0.3-0.8-0.4-1.4-0.6c-0.6-0.1-1.3-0.2-2.3-0.2c-1.6,0-2.8,0.3-3.5,0.8c-0.7,0.6-1,1.5-1,2.8v7.5H1629.3L1629.3,378.5z"/>
				<path d="M1667.1,378.5v-1.9c-0.6,0.7-1.5,1.3-2.7,1.6c-1.2,0.3-2.7,0.5-4.6,0.5c-1.4,0-2.5-0.1-3.5-0.2c-1-0.2-1.7-0.4-2.3-0.8
					c-0.6-0.4-1-0.9-1.3-1.6c-0.3-0.7-0.4-1.5-0.4-2.5c0-1,0.1-1.9,0.4-2.5c0.3-0.7,0.7-1.2,1.4-1.6c0.6-0.4,1.4-0.6,2.4-0.8
					c1-0.1,2.2-0.2,3.6-0.2c1.6,0,3,0.1,4.1,0.3c1.1,0.2,2,0.5,2.7,1v-1.7c0-1.1-0.7-1.7-2.2-1.7h-4.6c-1.1,0-1.6,0.4-1.6,1.2h-5.6
					v-0.2c0-1.7,0.6-2.9,1.9-3.6c1.3-0.7,3.3-1,5.9-1h5.5c2.1,0,3.7,0.4,4.7,1.2c1,0.8,1.5,2.1,1.5,3.9v10.6H1667.1L1667.1,378.5z
					 M1660.8,371.8c-1,0-1.7,0.1-2.1,0.3c-0.4,0.2-0.7,0.6-0.7,1.3c0,0.6,0.2,1,0.7,1.2c0.4,0.2,1.1,0.3,2.1,0.3h3.4
					c1,0,1.7-0.1,2.1-0.3c0.4-0.2,0.7-0.6,0.7-1.3c0-0.6-0.2-1-0.7-1.2c-0.4-0.2-1.1-0.3-2.1-0.3H1660.8z"/>
			</g>
		</g>
	</g>
	<g>
		<path d="M1461.9,252.4c0.1-1,0.1-2.5,0.1-3.8v-18h2.7v9.3h0.1c1-1.7,2.7-2.7,5.1-2.7c3.7,0,6.3,3.1,6.3,7.6c0,5.3-3.3,7.9-6.7,7.9
			c-2.1,0-3.9-0.8-5-2.8h-0.1l-0.1,2.5H1461.9z M1464.7,246.4c0,0.3,0.1,0.7,0.1,1c0.5,1.9,2.1,3.2,4,3.2c2.8,0,4.5-2.3,4.5-5.7
			c0-3-1.5-5.5-4.4-5.5c-1.8,0-3.6,1.3-4.1,3.3c-0.1,0.3-0.2,0.7-0.2,1.1V246.4z"/>
		<path d="M1480.3,237.5l3.3,8.8c0.3,1,0.7,2.1,1,3h0.1c0.3-0.9,0.6-2,1-3.1l2.9-8.7h2.9l-4.1,10.6c-1.9,5.1-3.3,7.7-5.1,9.3
			c-1.3,1.2-2.6,1.6-3.3,1.8l-0.7-2.3c0.7-0.2,1.6-0.6,2.4-1.3c0.7-0.6,1.7-1.6,2.3-3c0.1-0.3,0.2-0.5,0.2-0.6
			c0-0.2-0.1-0.4-0.2-0.7l-5.5-13.7H1480.3z"/>
	</g>
</g>
</svg>
