<svg id="Capa_1" data-name="Capa 1" xmlns="http://www.w3.org/2000/svg" xmlns:xlink="http://www.w3.org/1999/xlink" viewBox="0 0 1304.4698 997.9927"><defs><style>.cls-1,.cls-12{fill:none;}.cls-1{clip-rule:evenodd;}.cls-2{clip-path:url(#clip-path);}.cls-3{fill:url(#linear-gradient);}.cls-4{clip-path:url(#clip-path-2);}.cls-5{fill:url(#linear-gradient-2);}.cls-6{clip-path:url(#clip-path-3);}.cls-7{fill:url(#linear-gradient-3);}.cls-8{clip-path:url(#clip-path-4);}.cls-9{fill:url(#linear-gradient-4);}.cls-10{clip-path:url(#clip-path-5);}.cls-11{fill:url(#linear-gradient-5);}</style><clipPath id="clip-path" transform="translate(0 404.1953)"><path class="cls-1" d="M1042.66,103.5347c-26.7744,1.2378-42.4815,19.624-61.38,16.7407-3.8975-.5947-14.1172,3.7061-17.83,2.96-35.9043-7.2149-64.4365-21.3208-108.9785-38.65-147.5039-57.3863-364.9531,105.0161-531.603,33.89C262.7071,92.7983,189.8467,46.6323,138.7666.2134L1149.2549,0c.001,37.6079-106.5947,65.9273-106.5947,103.5347"/></clipPath><linearGradient id="linear-gradient" x1="-67.6806" y1="1080.4151" x2="-66.7007" y2="1080.4151" gradientTransform="matrix(1174.4864, 0.0005, -0.0004, 932.2072, 79579.3181, -1007075.9354)" gradientUnits="userSpaceOnUse"><stop offset="0" stop-color="#fff100"/><stop offset="0.32" stop-color="#e8e512"/><stop offset="0.58" stop-color="#a5cd39"/><stop offset="0.82" stop-color="#175a2c"/><stop offset="1"/></linearGradient><clipPath id="clip-path-2" transform="translate(0 404.1953)"><path class="cls-1" d="M.2456,85.9077C28.001,100.8516,167,155.8306,321.5576,117.9048,233.4688,78.2754,148.4117,10.9727,138.7661.2134H.2456Z"/></clipPath><linearGradient id="linear-gradient-2" x1="-67.6891" y1="1080.4109" x2="-66.689" y2="1080.4109" gradientTransform="translate(-23418.9193 163673.7535) rotate(180) scale(350.9461 151.0458)" gradientUnits="userSpaceOnUse"><stop offset="0" stop-color="#a2238d"/><stop offset="0.43" stop-color="#2e3191"/><stop offset="0.71" stop-color="#0052a3"/><stop offset="1" stop-color="#00adee"/></linearGradient><clipPath id="clip-path-3" transform="translate(0 404.1953)"><path class="cls-1" d="M693.4776,82.5435c86.0527,43.2509,182.0361,71.0146,267.3955,40.11-62.5225-13.3232-114.878-53.479-180.0567-52.1055-29.47.6211-68.2255,6.1426-87.3388,11.9952"/></clipPath><linearGradient id="linear-gradient-3" x1="-67.6688" y1="1080.3069" x2="-66.7086" y2="1080.3069" gradientTransform="matrix(-270.7985, 0.0002, 0, -82.3119, -17366.9836, 89033.4811)" gradientUnits="userSpaceOnUse"><stop offset="0" stop-color="#eb008b"/><stop offset="1" stop-color="#ffca05"/></linearGradient><clipPath id="clip-path-4" transform="translate(0 404.1953)"><path class="cls-1" d="M693.4776,82.5435C571.1953,107.9,434.5259,166.9517,321.55,117.9072,398.167,86.2764,476.5742,11.3818,559.9156,21.9282c44.4926,5.6309,88.5336,30.17,133.562,60.6153"/></clipPath><linearGradient id="linear-gradient-4" x1="-67.6885" y1="1080.5596" x2="-66.6883" y2="1080.5596" gradientTransform="matrix(516.2354, -0.0003, 0.0001, 173.1781, 35161.9759, -187040.1643)" gradientUnits="userSpaceOnUse"><stop offset="0" stop-color="#2e3191"/><stop offset="0.38" stop-color="#a44685"/><stop offset="0.8" stop-color="#e0a354"/><stop offset="1" stop-color="#ffca05"/></linearGradient><clipPath id="clip-path-5" transform="translate(0 404.1953)"><path class="cls-1" d="M1149.2559.2134H1304.47V73.7925c-66.51,44.64-211.3331,76.021-343.8184,48.8613,61.1475-17.7314,144.4043-87.3437,188.6045-122.44"/></clipPath><linearGradient id="linear-gradient-5" x1="-67.6899" y1="1080.3447" x2="-66.6896" y2="1080.3447" gradientTransform="translate(-24516.7804 148878.5926) rotate(180) scale(381.7423 137.363)" gradientUnits="userSpaceOnUse"><stop offset="0" stop-color="#fff100"/><stop offset="0.48" stop-color="#f48366"/><stop offset="0.78" stop-color="#eb008b"/><stop offset="1" stop-color="#eb008b"/></linearGradient></defs><title>harza-ondas</title><g class="cls-2"><rect class="cls-3" x="149.7103" y="-215.9436" width="988.6009" height="621.4891" transform="translate(25.5938 702.2143) rotate(-26.5651)"/></g><g class="cls-4"><rect class="cls-5" x="0.2456" y="404.4087" width="321.312" height="155.6172"/></g><g class="cls-6"><rect class="cls-7" x="691.4803" y="62.3403" width="271.39" height="98.0522" transform="translate(-4.6403 446.974) rotate(-2.9542)"/></g><g class="cls-8"><rect class="cls-9" x="316.408" y="-1.8743" width="382.2115" height="182.0824" transform="translate(-5.1228 441.1639) rotate(-4.1508)"/></g><g class="cls-10"><rect class="cls-11" x="960.6514" y="404.4087" width="343.8184" height="149.6001"/></g><rect class="cls-12" x="0.0002" y="429.8413" width="1304.3612" height="125.0493"/></svg>